<?xml version="1.0" encoding="UTF-8"?>
    <svg width="500" height="300" xmlns="http://www.w3.org/2000/svg">
    
    <!-- Tło -->
    <rect width="100%" height="100%" fill="lightblue" />

    <!-- Słońce (za pomocą okręgu Bresenhama) -->
    <polyline points="430,50 370,50 430,50 370,50 400,80 400,80 400,20 400,20 430,51 370,51 430,49 370,49 401,80 399,80 401,20 399,20 430,52 370,52 430,48 370,48 402,80 398,80 402,20 398,20 430,53 370,53 430,47 370,47 403,80 397,80 403,20 397,20 430,54 370,54 430,46 370,46 404,80 396,80 404,20 396,20 430,55 370,55 430,45 370,45 405,80 395,80 405,20 395,20 429,56 371,56 429,44 371,44 406,79 394,79 406,21 394,21 429,57 371,57 429,43 371,43 407,79 393,79 407,21 393,21 429,58 371,58 429,42 371,42 408,79 392,79 408,21 392,21 429,59 371,59 429,41 371,41 409,79 391,79 409,21 391,21 428,60 372,60 428,40 372,40 410,78 390,78 410,22 390,22 428,61 372,61 428,39 372,39 411,78 389,78 411,22 389,22 427,62 373,62 427,38 373,38 412,77 388,77 412,23 388,23 427,63 373,63 427,37 373,37 413,77 387,77 413,23 387,23 427,64 373,64 427,36 373,36 414,77 386,77 414,23 386,23 426,65 374,65 426,35 374,35 415,76 385,76 415,24 385,24 425,66 375,66 425,34 375,34 416,75 384,75 416,25 384,25 425,67 375,67 425,33 375,33 417,75 383,75 417,25 383,25 424,68 376,68 424,32 376,32 418,74 382,74 418,26 382,26 423,69 377,69 423,31 377,31 419,73 381,73 419,27 381,27 422,70 378,70 422,30 378,30 420,72 380,72 420,28 380,28 421,71 379,71 421,29 379,29 421,71 379,71 421,29 379,29" fill="yellow" stroke="orange" stroke-width="3"/>

    <!-- Góry (za pomocą własnych ścieżek) -->
    <path d="M50,240 L150,140 L250,240 Z" fill="gray" stroke="black" stroke-width="2"/>
    <path d="M180,240 L300,130 L420,240 Z" fill="darkgray" stroke="black" stroke-width="2"/>
    <path d="M350,240 L450,160 L550,240 Z" fill="dimgray" stroke="black" stroke-width="2"/>

    <!-- Drzewa (za pomocą okręgów Bresenhama + linii) -->
    <polyline points="50,210 50,211 50,212 50,213 50,214 50,215 50,216 50,217 50,218 50,219 50,220 50,221 50,222 50,223 50,224 50,225 50,226 50,227 50,228 50,229 50,230 50,231 50,232 50,233 50,234 50,235 50,236 50,237 50,238 50,239 50,240 50,241 50,242 50,243 50,244 50,245 50,246 50,247 50,248 50,249 50,250" stroke="saddlebrown" stroke-width="5"/>
    <polyline points="70,200 30,200 70,200 30,200 50,220 50,220 50,180 50,180 70,201 30,201 70,199 30,199 51,220 49,220 51,180 49,180 70,202 30,202 70,198 30,198 52,220 48,220 52,180 48,180 70,203 30,203 70,197 30,197 53,220 47,220 53,180 47,180 70,204 30,204 70,196 30,196 54,220 46,220 54,180 46,180 69,205 31,205 69,195 31,195 55,219 45,219 55,181 45,181 69,206 31,206 69,194 31,194 56,219 44,219 56,181 44,181 69,207 31,207 69,193 31,193 57,219 43,219 57,181 43,181 68,208 32,208 68,192 32,192 58,218 42,218 58,182 42,182 68,209 32,209 68,191 32,191 59,218 41,218 59,182 41,182 67,210 33,210 67,190 33,190 60,217 40,217 60,183 40,183 67,211 33,211 67,189 33,189 61,217 39,217 61,183 39,183 66,212 34,212 66,188 34,188 62,216 38,216 62,184 38,184 65,213 35,213 65,187 35,187 63,215 37,215 63,185 37,185 64,214 36,214 64,186 36,186 64,214 36,214 64,186 36,186" fill="green" />

    <polyline points="400,210 400,211 400,212 400,213 400,214 400,215 400,216 400,217 400,218 400,219 400,220 400,221 400,222 400,223 400,224 400,225 400,226 400,227 400,228 400,229 400,230 400,231 400,232 400,233 400,234 400,235 400,236 400,237 400,238 400,239 400,240 400,241 400,242 400,243 400,244 400,245 400,246 400,247 400,248 400,249 400,250" stroke="saddlebrown" stroke-width="5"/>
    <polyline points="420,200 380,200 420,200 380,200 400,220 400,220 400,180 400,180 420,201 380,201 420,199 380,199 401,220 399,220 401,180 399,180 420,202 380,202 420,198 380,198 402,220 398,220 402,180 398,180 420,203 380,203 420,197 380,197 403,220 397,220 403,180 397,180 420,204 380,204 420,196 380,196 404,220 396,220 404,180 396,180 419,205 381,205 419,195 381,195 405,219 395,219 405,181 395,181 419,206 381,206 419,194 381,194 406,219 394,219 406,181 394,181 419,207 381,207 419,193 381,193 407,219 393,219 407,181 393,181 418,208 382,208 418,192 382,192 408,218 392,218 408,182 392,182 418,209 382,209 418,191 382,191 409,218 391,218 409,182 391,182 417,210 383,210 417,190 383,190 410,217 390,217 410,183 390,183 417,211 383,211 417,189 383,189 411,217 389,217 411,183 389,183 416,212 384,212 416,188 384,188 412,216 388,216 412,184 388,184 415,213 385,213 415,187 385,187 413,215 387,215 413,185 387,185 414,214 386,214 414,186 386,186 414,214 386,214 414,186 386,186" fill="green" />

    <!-- Trawa (na dole ekranu) -->
    <rect y="240" width="100%" height="60" fill="green" />
    </svg>